<svg width="35" height="40" viewBox="0 0 35 40" fill="none" xmlns="http://www.w3.org/2000/svg">
<path opacity="0.21" d="M20.6747 31.7162L29.3777 17.7371C32.0926 13.3763 30.7658 7.63816 26.4141 4.92058C22.0624 2.203 16.3337 3.53508 13.6188 7.89587L4.91579 21.8749C2.20088 26.2357 3.52777 31.9739 7.87947 34.6914C12.2312 37.409 17.9598 36.0769 20.6747 31.7162Z" fill="#34A853"/>
<path d="M21.7911 19.7592C26.3934 19.7592 30.1243 16.0225 30.1243 11.4132C30.1243 6.80378 26.3934 3.06714 21.7911 3.06714C17.1888 3.06714 13.4579 6.80378 13.4579 11.4132C13.4579 16.0225 17.1888 19.7592 21.7911 19.7592Z" fill="#34A853"/>
<path d="M12.9665 35.026C17.5688 35.026 21.2997 31.2894 21.2997 26.68C21.2997 22.0706 17.5688 18.334 12.9665 18.334C8.36416 18.334 4.63324 22.0706 4.63324 26.68C4.63324 31.2894 8.36416 35.026 12.9665 35.026Z" fill="#34A853"/>
</svg>
